{"title":"18+.Truth or Dare.2018.PROPER.HD-TS.X264.LLG","magnet":"magnet:?xt=urn:btih:10b305f16e703a40d3b9ac38d9504271578d9fc3&dn=18%2B.Truth+or+Dare.2018.PROPER.HD-TS.X264.LLG&tr=udp%3A%2F%2Ftracker.leechers-paradise.org%3A6969&tr=udp%3A%2F%2Fzer0day.ch%3A1337&tr=udp%3A%2F%2Fopen.demonii.com%3A1337&tr=udp%3A%2F%2Ftracker.coppersurfer.tk%3A6969&tr=udp%3A%2F%2Fexodus.desync.com%3A6969","uploader":"LifeLongg","categoryP":"video","categoryS":"movies","size":"983349552","seeders":"58","leechers":"88","description":"******************************Screenshots:********************\r\n <a href=\"\nhttp://picserver4u.com/d/0741.html\" rel=\"nofollow\" target=\"_NEW\">\nhttp://picserver4u.com/d/0741.html</a>\r\n <a href=\"\nhttp://picserver4u.com/d/0742.html\" rel=\"nofollow\" target=\"_NEW\">\nhttp://picserver4u.com/d/0742.html</a>\r\n <a href=\"\nhttp://picserver4u.com/d/0743.html\" rel=\"nofollow\" target=\"_NEW\">\nhttp://picserver4u.com/d/0743.html</a>\r\n <a href=\"\nhttp://picserver4u.com/d/0744.html\" rel=\"nofollow\" target=\"_NEW\">\nhttp://picserver4u.com/d/0744.html</a>\r\n <a href=\"\nhttp://picserver4u.com/d/0745.html\" rel=\"nofollow\" target=\"_NEW\">\nhttp://picserver4u.com/d/0745.html</a>\r\n\r\n************************************************************** \r\n\r\nComplete name                            : 18+.Truth or Dare.2018.PROPER.HD-TS.X264.LLG.mp4\r\nFormat                                   : MPEG-4\r\nFormat profile                           : Base Media\r\nCodec ID                                 : isom (isom/iso2/avc1/mp41)\r\nFile size                                : 927 MiB\r\nDuration                                 : 1 h 37 min\r\nOverall bit rate                         : 1 332 kb/s\r\nWriting application                      : Lavf57.56.101\r\n\r\nVideo\r\nID                                       : 1\r\nFormat                                   : AVC\r\nFormat/Info                              : Advanced Video Codec\r\nFormat profile                           : <a href=\"/cdn-cgi/l/email-protection\" class=\"__cf_email__\" data-cfemail=\"f5bd9c929db5b9c6\">[email&#xA0;protected]</a>\r\nFormat settings                          : CABAC / 4 Ref Frames\r\nFormat settings, CABAC                   : Yes\r\nFormat settings, RefFrames               : 4 frames\r\nCodec ID                                 : avc1\r\nCodec ID/Info                            : Advanced Video Coding\r\nDuration                                 : 1 h 37 min\r\nBit rate                                 : 1 200 kb/s\r\nWidth                                    : 720 pixels\r\nHeight                                   : 384 pixels\r\nDisplay aspect ratio                     : 1.85:1\r\nFrame rate mode                          : Constant\r\nFrame rate                               : 29.970 (29970/1000) FPS\r\nColor space                              : YUV\r\nChroma subsampling                       : 4:2:0\r\nBit depth                                : 8 bits\r\nScan type                                : Progressive\r\nBits/(Pixel*Frame)                       : 0.145\r\nStream size                              : 832 MiB (90%)\r\n\r\nAudio\r\nID                                       : 2\r\nFormat                                   : MPEG Audio\r\nFormat version                           : Version 1\r\nFormat profile                           : Layer 3\r\nFormat settings                          : Joint stereo / MS Stereo\r\nCodec ID                                 : mp4a-6B\r\nDuration                                 : 1 h 37 min\r\nBit rate mode                            : Constant\r\nBit rate                                 : 128 kb/s\r\nChannel(s)                               : 2 channels\r\nSampling rate                            : 44.1 kHz\r\nCompression mode                         : Lossy\r\nStream size                              : 89.1 MiB (10%)\r\nWriting library                          : LAME3.99.5\r\nDefault                                  : Yes\r\nAlternate group                          : 1","last_updated":"2018-04-29T12:09:42.111Z","parsed":{"xt":"urn:btih:10b305f16e703a40d3b9ac38d9504271578d9fc3","dn":"18 .Truth or Dare.2018.PROPER.HD-TS.X264.LLG","tr":["udp://exodus.desync.com:6969","udp://open.demonii.com:1337","udp://tracker.coppersurfer.tk:6969","udp://tracker.leechers-paradise.org:6969","udp://zer0day.ch:1337"],"infoHash":"10b305f16e703a40d3b9ac38d9504271578d9fc3","infoHashBuffer":{"type":"Buffer","data":[16,179,5,241,110,112,58,64,211,185,172,56,217,80,66,113,87,141,159,195]},"name":"18 .Truth or Dare.2018.PROPER.HD-TS.X264.LLG","announce":["udp://exodus.desync.com:6969","udp://open.demonii.com:1337","udp://tracker.coppersurfer.tk:6969","udp://tracker.leechers-paradise.org:6969","udp://zer0day.ch:1337"],"urlList":[]}}